<?xml version="1.0" standalone="no"?>
<!DOCTYPE svg PUBLIC "-//W3C//DTD SVG 20010904//EN"
 "http://www.w3.org/TR/2001/REC-SVG-20010904/DTD/svg10.dtd">
<svg version="1.0" xmlns="http://www.w3.org/2000/svg"
 width="192.000000pt" height="192.000000pt" viewBox="0 0 192.000000 192.000000"
 preserveAspectRatio="xMidYMid meet">

<g transform="translate(0.000000,192.000000) scale(0.100000,-0.100000)"
fill="#000000" stroke="none">
<path d="M565 1691 l-390 -228 0 -484 0 -483 392 -233 392 -232 393 233 393
232 0 483 0 483 -393 229 c-216 126 -394 229 -395 228 -1 0 -177 -103 -392
-228z m800 -36 c187 -109 342 -199 343 -200 2 -2 -62 -42 -142 -90 l-145 -86
-230 133 -230 133 -1 173 0 174 33 -20 c17 -11 185 -108 372 -217z m-185 -252
c121 -71 220 -130 220 -133 -1 -9 -423 -254 -439 -254 -16 -1 -440 244 -441
254 0 4 428 257 438 259 2 1 102 -56 222 -126z m-837 -58 l136 -80 1 -290 0
-290 -134 -83 c-74 -45 -139 -82 -145 -82 -8 0 -11 139 -11 456 0 251 4 454 8
452 5 -1 70 -39 145 -83z m605 -638 c1 -152 0 -277 -2 -277 -2 0 -105 60 -228
133 l-223 133 -2 268 c-2 148 0 272 2 277 3 4 105 -52 228 -124 l222 -133 3
-277z m472 264 l0 -279 -217 -129 c-119 -70 -220 -130 -225 -131 -5 -2 -7 121
-6 274 l3 279 220 131 c121 73 221 133 223 133 1 1 2 -125 2 -278z m163 -370
c76 -46 134 -88 130 -92 -9 -9 -733 -439 -739 -439 -2 0 -4 76 -4 169 l0 170
233 139 c127 77 234 139 237 138 3 0 68 -39 143 -85z"/>
</g>
</svg>
